<svg width="48" height="42" viewBox="0 0 48 42" fill="none" xmlns="http://www.w3.org/2000/svg">
<path d="M45.7973 4.34722L37.444 0.867128C36.5277 0.485472 35.4768 0.485565 34.5606 0.867222L30.5499 2.53775C30.1914 2.68719 30.0218 3.09875 30.1712 3.45725C30.3205 3.81575 30.7321 3.98544 31.0907 3.836L35.1013 2.16538C35.6737 1.92688 36.3306 1.92678 36.9034 2.16528L45.2562 5.64519C46.0687 5.9841 46.5937 6.74619 46.5937 7.58647V37.6568C46.5937 38.8261 45.5894 39.7774 44.355 39.7774H43.215C42.8266 39.7774 42.5119 40.0921 42.5119 40.4805C42.5119 40.8689 42.8266 41.1837 43.215 41.1837H44.355C46.3648 41.1837 48 39.6015 48 37.6568V7.58647C48 6.17685 47.1354 4.90541 45.7973 4.34722Z" fill="#6701BA"/>
<path d="M40.1503 39.7775H28.3359C28.8224 39.2246 29.0887 38.5231 29.0887 37.7807C29.0887 37.0398 28.8205 36.3607 28.3767 35.8342C28.6566 35.6914 28.9157 35.5046 29.1444 35.2759C29.7156 34.7047 30.03 33.9453 30.03 33.1372C30.03 32.367 29.7401 31.6635 29.2643 31.1289C29.4999 30.9955 29.7193 30.8301 29.9158 30.6334C30.4869 30.0624 30.8015 29.3029 30.8015 28.4947C30.8015 27.7267 30.5134 27.025 30.0403 26.4909C30.2798 26.3565 30.503 26.189 30.703 25.9894C31.2738 25.4174 31.588 24.6581 31.588 23.8512C31.588 22.183 30.2313 20.8259 28.5636 20.8259H25.4108V7.5865C25.4108 6.74613 25.9358 5.98404 26.7479 5.64532L28.0267 5.11282C28.3853 4.96357 28.5548 4.55201 28.4056 4.19341C28.2563 3.83491 27.8447 3.66504 27.4862 3.81457L26.2069 4.34725C24.869 4.90535 24.0045 6.17688 24.0045 7.5865V20.826H21.0667C22.0449 17.7345 21.9617 14.5081 20.82 10.7634C20.6466 10.1963 20.3016 9.7106 19.822 9.35875C19.3453 9.00907 18.7804 8.8241 18.1882 8.8241C17.4252 8.8241 16.7158 9.12879 16.1904 9.682C15.6653 10.2351 15.398 10.9593 15.4375 11.7209C15.6574 15.9487 13.7072 17.4039 11.008 19.4181C10.1194 20.0812 9.14813 20.8065 8.19356 21.6959V20.7743C8.19356 20.3859 7.87884 20.0712 7.49044 20.0712H0.703125C0.314719 20.0712 0 20.3859 0 20.7743V40.7159C0 41.1043 0.314719 41.419 0.703125 41.419H7.49063C7.87903 41.419 8.19375 41.1043 8.19375 40.7159V38.947C9.52922 39.074 10.5046 39.3402 11.4522 40.0665C12.0743 40.5433 12.8412 40.8059 13.6116 40.8059H26.012C26.5186 41.0528 27.0802 41.1837 27.6496 41.1837H40.1502C40.5386 41.1837 40.8533 40.869 40.8533 40.4806C40.8533 40.0922 40.5386 39.7775 40.1503 39.7775ZM12.3077 38.9503C10.9819 37.9343 9.56494 37.652 8.19375 37.5336V29.3235C8.19375 28.9351 7.87903 28.6203 7.49063 28.6203C7.10222 28.6203 6.7875 28.9351 6.7875 29.3235V40.0128H1.40625V21.4775H6.7875V26.2598C6.7875 26.6482 7.10222 26.9629 7.49063 26.9629C7.87903 26.9629 8.19375 26.6482 8.19375 26.2598V23.6934C9.36994 22.3954 10.6294 21.4556 11.8492 20.5453C14.5501 18.5299 17.101 16.6263 16.8422 11.6479C16.8228 11.2753 16.9536 10.921 17.2106 10.6503C17.4677 10.3795 17.8149 10.2304 18.1884 10.2304C18.4793 10.2304 18.7566 10.3211 18.9903 10.4927C19.2236 10.6638 19.3913 10.8997 19.4753 11.1743C20.6381 14.9885 20.6199 18.1976 19.4181 21.2734C19.3335 21.4898 19.3613 21.7339 19.4923 21.9258C19.6233 22.1178 19.8406 22.2325 20.0729 22.2325H28.5637C29.4561 22.2325 30.182 22.9588 30.182 23.8516C30.182 24.2833 30.0135 24.6899 29.7087 24.9954C29.4022 25.3012 28.9957 25.4697 28.5637 25.4697H25.6753C25.2869 25.4697 24.9722 25.7844 24.9722 26.1728C24.9722 26.5612 25.2869 26.8759 25.6753 26.8759H27.7772C28.6694 26.8759 29.3953 27.6022 29.3953 28.4951C29.3953 28.9276 29.2271 29.334 28.9215 29.6395C28.6161 29.945 28.2097 30.1132 27.7772 30.1132H25.6753C25.2869 30.1132 24.9722 30.4279 24.9722 30.8163C24.9722 31.2048 25.2869 31.5195 25.6753 31.5195H27.0055C27.8978 31.5195 28.6238 32.2454 28.6238 33.1376C28.6238 33.57 28.4555 33.9765 28.15 34.282C27.8438 34.5882 27.4373 34.7567 27.0055 34.7567H26.0643H24.9037C24.5153 34.7567 24.2005 35.0714 24.2005 35.4598C24.2005 35.8482 24.5153 36.1629 24.9037 36.1629H26.0643C26.9566 36.1629 27.6825 36.8888 27.6825 37.781C27.6825 38.2134 27.514 38.6203 27.2093 38.9257C26.9238 39.2106 26.4727 39.3924 26.1351 39.3984C26.1117 39.3988 13.6116 39.4001 13.6116 39.4001C13.1488 39.3996 12.6857 39.2401 12.3077 38.9503Z" fill="#6701BA"/>
<path d="M38.5399 7.89893C38.5399 6.42142 37.3378 5.21936 35.8603 5.21936C34.3828 5.21936 33.1808 6.42142 33.1808 7.89893C33.1808 9.37643 34.3828 10.5785 35.8603 10.5785C37.3378 10.5785 38.5399 9.37643 38.5399 7.89893ZM34.587 7.89893C34.587 7.19683 35.1583 6.62561 35.8603 6.62561C36.5624 6.62561 37.1337 7.19683 37.1337 7.89893C37.1337 8.60102 36.5624 9.17224 35.8603 9.17224C35.1583 9.17224 34.587 8.60111 34.587 7.89893Z" fill="#6701BA"/>
<path d="M36.2996 31.8904H35.0386C34.3743 31.8904 33.834 31.35 33.834 30.6857C33.834 30.2973 33.5192 29.9826 33.1308 29.9826C32.7424 29.9826 32.4277 30.2973 32.4277 30.6857C32.4277 32.1011 33.5598 33.2561 34.9659 33.2948V34.8509C34.9659 35.2393 35.2806 35.554 35.669 35.554C36.0574 35.554 36.3721 35.2393 36.3721 34.8509V33.2948C37.7783 33.2561 38.9104 32.1011 38.9104 30.6857V29.7123C38.9104 28.8092 38.3334 28.0151 37.4745 27.7359L34.2982 26.7042C34.0205 26.6139 33.834 26.3572 33.834 26.0653V24.6715C33.834 24.132 34.2728 23.6931 34.8122 23.6931H36.526C37.0654 23.6931 37.5043 24.132 37.5043 24.6715C37.5043 25.0599 37.819 25.3746 38.2074 25.3746C38.5958 25.3746 38.9105 25.0599 38.9105 24.6715C38.9105 23.3566 37.8408 22.2869 36.526 22.2869H36.3721V20.7327C36.3721 20.3443 36.0574 20.0295 35.669 20.0295C35.2806 20.0295 34.9659 20.3443 34.9659 20.7327V22.2869H34.8121C33.4974 22.2869 32.4276 23.3565 32.4276 24.6715V26.0653C32.4276 26.9684 33.0046 27.7625 33.8636 28.0416L37.0397 29.0733C37.3175 29.1636 37.5041 29.4204 37.5041 29.7123V30.6857C37.5043 31.35 36.9638 31.8904 36.2996 31.8904Z" fill="#6701BA"/>
</svg>
