<svg width="48" height="27" viewBox="0 0 48 27" fill="none" xmlns="http://www.w3.org/2000/svg">
<path d="M41.2109 26.2881C40.3975 26.2887 39.6022 26.048 38.9256 25.5965C38.249 25.1451 37.7215 24.5031 37.4098 23.7518C37.0981 23.0004 37.0163 22.1736 37.1746 21.3757C37.3329 20.5779 37.7243 19.8449 38.2993 19.2695C38.8742 18.6942 39.6069 18.3022 40.4046 18.1433C41.2024 17.9844 42.0293 18.0657 42.7808 18.3768C43.5324 18.6879 44.1748 19.215 44.6267 19.8913C45.0787 20.5676 45.3199 21.3627 45.3199 22.1761C45.3194 23.266 44.8864 24.3111 44.116 25.0821C43.3457 25.853 42.3008 26.2868 41.2109 26.2881ZM41.2109 19.5641C40.6942 19.5635 40.1889 19.7162 39.759 20.0028C39.329 20.2895 38.9938 20.6972 38.7956 21.1744C38.5975 21.6517 38.5453 22.1769 38.6458 22.6838C38.7462 23.1907 38.9948 23.6564 39.3599 24.022C39.7251 24.3876 40.1905 24.6367 40.6973 24.7377C41.204 24.8387 41.7294 24.7872 42.2068 24.5895C42.6843 24.3919 43.0924 24.0572 43.3795 23.6275C43.6667 23.1979 43.8199 22.6928 43.8199 22.1761C43.8197 21.4839 43.5448 20.8202 43.0557 20.3305C42.5665 19.8408 41.9031 19.5651 41.2109 19.5641Z" fill="#6701BA"/>
<path d="M19.542 26.2881C18.7286 26.2889 17.9332 26.0484 17.2564 25.597C16.5797 25.1457 16.052 24.5038 15.7402 23.7525C15.4283 23.0012 15.3463 22.1742 15.5046 21.3763C15.6628 20.5784 16.0541 19.8454 16.629 19.2699C17.2039 18.6944 17.9366 18.3024 18.7343 18.1434C19.5321 17.9844 20.3591 18.0656 21.1107 18.3767C21.8623 18.6878 22.5047 19.2149 22.9568 19.8912C23.4088 20.5675 23.65 21.3626 23.65 22.1761C23.6492 23.2657 23.2163 24.3106 22.4462 25.0814C21.6761 25.8523 20.6317 26.2862 19.542 26.2881ZM19.542 19.5641C19.0253 19.5633 18.5199 19.7158 18.0898 20.0023C17.6597 20.2889 17.3243 20.6965 17.126 21.1737C16.9277 21.651 16.8754 22.1763 16.9757 22.6832C17.0761 23.1901 17.3245 23.6559 17.6896 24.0216C18.0548 24.3873 18.5202 24.6365 19.027 24.7376C19.5338 24.8387 20.0592 24.7872 20.5367 24.5896C21.0142 24.3921 21.4224 24.0573 21.7095 23.6276C21.9967 23.198 22.15 22.6929 22.15 22.1761C22.1495 21.4842 21.8747 20.8207 21.3858 20.3311C20.897 19.8415 20.2339 19.5657 19.542 19.5641Z" fill="#6701BA"/>
<path d="M46.6209 22.9261H44.5699C44.371 22.9261 44.1802 22.8471 44.0396 22.7064C43.8989 22.5658 43.8199 22.375 43.8199 22.1761C43.8199 21.9772 43.8989 21.7864 44.0396 21.6457C44.1802 21.5051 44.371 21.4261 44.5699 21.4261H46.4089V17.4491C46.4084 16.9114 46.2707 16.3827 46.0089 15.9131L41.9489 8.63408C41.9142 8.57196 41.8636 8.52021 41.8022 8.48417C41.7409 8.44814 41.671 8.42912 41.5999 8.42908H36.0669V21.4291H37.8529C38.0518 21.4291 38.2426 21.5081 38.3832 21.6487C38.5239 21.7894 38.6029 21.9802 38.6029 22.1791C38.6029 22.378 38.5239 22.5688 38.3832 22.7094C38.2426 22.8501 38.0518 22.9291 37.8529 22.9291H35.3169C35.118 22.9291 34.9272 22.8501 34.7866 22.7094C34.6459 22.5688 34.5669 22.378 34.5669 22.1791V7.67908C34.5669 7.48017 34.6459 7.2894 34.7866 7.14875C34.9272 7.00809 35.118 6.92908 35.3169 6.92908H41.5999C41.9382 6.92891 42.2705 7.01911 42.5623 7.19034C42.8542 7.36157 43.095 7.60762 43.2599 7.90308L47.3189 15.1831C47.7048 15.876 47.9075 16.6559 47.9079 17.4491V21.6391C47.9074 21.9802 47.7716 22.3073 47.5304 22.5485C47.2891 22.7898 46.9621 22.9255 46.6209 22.9261Z" fill="#6701BA"/>
<path d="M16.1829 22.9261H8.99194C8.79303 22.9261 8.60227 22.8471 8.46161 22.7064C8.32096 22.5658 8.24194 22.375 8.24194 22.1761V16.4081C8.24194 16.2092 8.32096 16.0184 8.46161 15.8778C8.60227 15.7371 8.79303 15.6581 8.99194 15.6581C9.19086 15.6581 9.38162 15.7371 9.52227 15.8778C9.66293 16.0184 9.74194 16.2092 9.74194 16.4081V21.4261H16.1829C16.3819 21.4261 16.5726 21.5051 16.7133 21.6457C16.8539 21.7864 16.9329 21.9772 16.9329 22.1761C16.9329 22.375 16.8539 22.5658 16.7133 22.7064C16.5726 22.8471 16.3819 22.9261 16.1829 22.9261Z" fill="#6701BA"/>
<path d="M8.99194 13.7471C8.79303 13.7471 8.60227 13.668 8.46161 13.5274C8.32096 13.3867 8.24194 13.196 8.24194 12.9971V7.96106C8.24194 7.76215 8.32096 7.57138 8.46161 7.43073C8.60227 7.29008 8.79303 7.21106 8.99194 7.21106C9.19086 7.21106 9.38162 7.29008 9.52227 7.43073C9.66293 7.57138 9.74194 7.76215 9.74194 7.96106V13.0001C9.74115 13.1985 9.66178 13.3884 9.52122 13.5285C9.38065 13.6685 9.19034 13.7471 8.99194 13.7471Z" fill="#6701BA"/>
<path d="M35.3169 22.9261H22.8999C22.701 22.9261 22.5103 22.847 22.3696 22.7064C22.229 22.5657 22.1499 22.375 22.1499 22.1761C22.1499 21.9771 22.229 21.7864 22.3696 21.6457C22.5103 21.5051 22.701 21.4261 22.8999 21.4261H34.5669V1.80505H9.74194V4.89405C9.74194 5.09297 9.66293 5.28373 9.52227 5.42438C9.38162 5.56504 9.19086 5.64405 8.99194 5.64405C8.79303 5.64405 8.60227 5.56504 8.46161 5.42438C8.32096 5.28373 8.24194 5.09297 8.24194 4.89405V1.66705C8.24247 1.30582 8.38628 0.959544 8.6418 0.704206C8.89733 0.448867 9.24371 0.305318 9.60494 0.305054H34.7049C35.066 0.305583 35.4121 0.449248 35.6674 0.704558C35.9227 0.959868 36.0664 1.30599 36.0669 1.66705V22.1761C36.0669 22.375 35.9879 22.5657 35.8473 22.7064C35.7066 22.847 35.5159 22.9261 35.3169 22.9261Z" fill="#6701BA"/>
<path d="M11.957 17.1581H2.43799C2.23908 17.1581 2.04831 17.0791 1.90766 16.9384C1.76701 16.7978 1.68799 16.607 1.68799 16.4081C1.68799 16.2092 1.76701 16.0184 1.90766 15.8778C2.04831 15.7371 2.23908 15.6581 2.43799 15.6581H11.957C12.1559 15.6581 12.3467 15.7371 12.4873 15.8778C12.628 16.0184 12.707 16.2092 12.707 16.4081C12.707 16.607 12.628 16.7978 12.4873 16.9384C12.3467 17.0791 12.1559 17.1581 11.957 17.1581Z" fill="#6701BA"/>
<path d="M19.542 13.7471H6.25903C6.06012 13.7471 5.86936 13.6681 5.7287 13.5274C5.58805 13.3867 5.50903 13.196 5.50903 12.9971C5.50903 12.7982 5.58805 12.6074 5.7287 12.4667C5.86936 12.3261 6.06012 12.2471 6.25903 12.2471H19.542C19.7409 12.2471 19.9317 12.3261 20.0724 12.4667C20.213 12.6074 20.292 12.7982 20.292 12.9971C20.292 13.196 20.213 13.3867 20.0724 13.5274C19.9317 13.6681 19.7409 13.7471 19.542 13.7471Z" fill="#6701BA"/>
<path d="M5.84594 9.78711H0.658936C0.460023 9.78711 0.269258 9.70809 0.128605 9.56744C-0.0120468 9.42679 -0.0910645 9.23602 -0.0910645 9.03711C-0.0910645 8.8382 -0.0120468 8.64743 0.128605 8.50678C0.269258 8.36613 0.460023 8.28711 0.658936 8.28711H5.84594C6.04485 8.28711 6.23561 8.36613 6.37627 8.50678C6.51692 8.64743 6.59594 8.8382 6.59594 9.03711C6.59594 9.23602 6.51692 9.42679 6.37627 9.56744C6.23561 9.70809 6.04485 9.78711 5.84594 9.78711Z" fill="#6701BA"/>
<path d="M14.1628 5.64404H5.00684C4.80792 5.64404 4.61716 5.56502 4.47651 5.42437C4.33585 5.28372 4.25684 5.09296 4.25684 4.89404C4.25684 4.69513 4.33585 4.50437 4.47651 4.36371C4.61716 4.22306 4.80792 4.14404 5.00684 4.14404H14.1628C14.3617 4.14404 14.5525 4.22306 14.6932 4.36371C14.8338 4.50437 14.9128 4.69513 14.9128 4.89404C14.9128 5.09296 14.8338 5.28372 14.6932 5.42437C14.5525 5.56502 14.3617 5.64404 14.1628 5.64404Z" fill="#6701BA"/>
</svg>
