<svg width="40" height="48" viewBox="0 0 40 48" fill="none" xmlns="http://www.w3.org/2000/svg">
<path d="M38.6987 22.0428L32.6859 15.4834C31.9851 14.719 30.9885 14.2805 29.9514 14.2805H10.0484C9.01132 14.2805 8.01467 14.719 7.31388 15.4834L1.30113 22.0428C0.291353 23.1444 0.240447 24.8498 1.18282 26.0097L18.451 47.2629C18.8317 47.7314 19.3962 48 19.9999 48C20.6035 48 21.168 47.7314 21.5487 47.2629L38.8169 26.0097C39.7594 24.8497 39.7084 23.1444 38.6987 22.0428ZM30.2829 15.7114L28.6824 20.4062C28.5571 20.7738 28.7535 21.1734 29.1211 21.2987C29.1963 21.3243 29.2728 21.3365 29.3479 21.3365C29.6405 21.3365 29.9137 21.1525 30.0134 20.8601L31.5552 16.3374C31.5874 16.3686 31.6189 16.4005 31.6492 16.4336L37.662 22.993C37.7487 23.0875 37.8207 23.191 37.881 23.2996H28.5768L21.5982 15.6867H29.9513C30.063 15.6868 30.1737 15.6954 30.2829 15.7114ZM26.6691 23.2996H13.3306L19.9999 16.0242L26.6691 23.2996ZM18.4015 15.6868L12.0649 22.5993L9.71679 15.7114C9.82601 15.6955 9.93673 15.6868 10.0483 15.6868H18.4015ZM8.35048 16.4337C8.38085 16.4005 8.41235 16.3686 8.44451 16.3375L10.818 23.2997H2.11873C2.17901 23.1912 2.25101 23.0877 2.33773 22.9931L8.35048 16.4337ZM2.0306 24.7059H27.2166L19.9999 45.8751L13.592 27.0788C13.4668 26.7113 13.0673 26.5148 12.6996 26.6401C12.332 26.7655 12.1356 27.165 12.261 27.5325L18.065 44.5578L2.27417 25.1229C2.17001 24.9946 2.08976 24.8535 2.0306 24.7059ZM21.9346 44.5578L28.7023 24.7059H37.9691C37.9099 24.8535 37.8297 24.9946 37.7255 25.1228L21.9346 44.5578Z" fill="#6701BA"/>
<path d="M20 11.1771C20.3883 11.1771 20.7031 10.8623 20.7031 10.4739V0.703125C20.7031 0.314813 20.3883 0 20 0C19.6117 0 19.2969 0.314813 19.2969 0.703125V10.4739C19.2969 10.8623 19.6117 11.1771 20 11.1771Z" fill="#6701BA"/>
<path d="M12.6064 11.54C12.7296 11.7863 12.9779 11.9288 13.2359 11.9288C13.3415 11.9288 13.4488 11.9049 13.5497 11.8544C13.8971 11.6807 14.0379 11.2584 13.8642 10.9111L10.8578 4.89825C10.6842 4.55091 10.2618 4.41009 9.91448 4.58381C9.56714 4.75753 9.42633 5.17978 9.60005 5.52713L12.6064 11.54Z" fill="#6701BA"/>
<path d="M26.4499 11.8544C26.5509 11.9049 26.6581 11.9288 26.7638 11.9288C27.0217 11.9288 27.27 11.7863 27.3932 11.54L30.3996 5.52713C30.5733 5.17978 30.4325 4.75753 30.0851 4.58381C29.7378 4.41009 29.3155 4.55091 29.1418 4.89825L26.1354 10.9111C25.9617 11.2584 26.1025 11.6808 26.4499 11.8544Z" fill="#6701BA"/>
</svg>
