<svg width="100" height="35" viewBox="0 0 100 35" fill="none" xmlns="http://www.w3.org/2000/svg">
<path d="M26.9428 0V6.83049H17.7138V35H9.22902V6.83049H0V0H26.9428Z" fill="#82BA01"/>
<path d="M44.2507 0C47.9224 0 51.1311 0.731244 53.8766 2.19373C56.6222 3.65622 58.7392 5.717 60.2278 8.37607C61.7494 11.0019 62.5102 14.0432 62.5102 17.5C62.5102 20.9236 61.7494 23.9649 60.2278 26.6239C58.7392 29.283 56.6056 31.3438 53.827 32.8063C51.0815 34.2688 47.8893 35 44.2507 35H31.201V0H44.2507ZM43.7049 27.6211C46.9135 27.6211 49.411 26.7403 51.1972 24.9786C52.9835 23.217 53.8766 20.7241 53.8766 17.5C53.8766 14.2759 52.9835 11.7664 51.1972 9.97151C49.411 8.17664 46.9135 7.2792 43.7049 7.2792H39.6858V27.6211H43.7049Z" fill="#82BA01"/>
<path d="M88.9351 28.8177H75.9351L73.8511 35H64.9694L77.5725 0H87.3969L100 35H91.0191L88.9351 28.8177ZM86.7519 22.2365L82.4351 9.42308L78.1679 22.2365H86.7519Z" fill="#82BA01"/>
</svg>
