<svg width="21" height="13" viewBox="0 0 21 13" fill="none" xmlns="http://www.w3.org/2000/svg">
<path d="M20.8065 11.1143C20.8065 11.0313 20.7235 11.0313 20.7235 10.9482C20.3914 10.2841 19.6442 9.45383 18.6479 8.54057C18.1498 8.12546 17.9007 7.79336 17.7346 7.62732C17.4856 7.29523 17.4856 7.04616 17.5686 6.71407C17.6516 6.465 17.9837 6.04988 18.5649 5.30267C18.897 4.88756 19.063 4.6385 19.3121 4.38943C20.5574 2.72897 21.1386 1.64966 20.9725 1.15153L20.8895 1.06851C20.8065 0.985488 20.7235 0.902467 20.5574 0.902467C20.3914 0.819444 20.1423 0.819444 19.8932 0.902467H16.7384C16.6554 0.902467 16.6553 0.902467 16.4893 0.902467C16.4063 0.902467 16.3233 0.902467 16.3233 0.902467H16.2402H16.1572L16.0742 0.985483C15.9912 1.06851 15.9912 1.0685 15.9912 1.15153C15.6591 2.06478 15.244 2.81198 14.8288 3.64221C14.5798 4.05733 14.3307 4.47245 14.0816 4.80454C13.8326 5.13663 13.6665 5.3857 13.5005 5.55174C13.3344 5.71779 13.1684 5.80081 13.0854 5.96686C13.0023 6.04988 12.8363 6.13291 12.8363 6.04989C12.7533 6.04989 12.6702 6.04988 12.6702 5.96686C12.5872 5.88384 12.5042 5.80081 12.4212 5.71779C12.3382 5.63476 12.3382 5.46872 12.2551 5.30267C12.2551 5.13663 12.2551 4.97058 12.2551 4.88756C12.2551 4.80453 12.2551 4.55547 12.2551 4.38943C12.2551 4.14036 12.2551 3.97431 12.2551 3.89128C12.2551 3.64222 12.2551 3.31013 12.2551 2.97804C12.2551 2.64595 12.2551 2.39687 12.2551 2.23083C12.2551 2.06478 12.2551 1.81571 12.2551 1.64967C12.2551 1.4006 12.2551 1.23455 12.2551 1.15153C12.2551 1.0685 12.1721 0.902462 12.1721 0.819439C12.0891 0.736416 12.0061 0.653391 11.923 0.570368C11.84 0.487345 11.674 0.487347 11.591 0.404325C11.1758 0.321302 10.6777 0.238281 10.0966 0.238281C8.76819 0.238281 7.85493 0.321307 7.52284 0.487353C7.35679 0.570376 7.19075 0.653393 7.10772 0.819439C6.94168 0.985485 6.94167 1.06851 7.02469 1.06851C7.43981 1.15153 7.77191 1.31757 7.93795 1.56664L8.02098 1.7327C8.104 1.81572 8.10399 1.98176 8.18701 2.23083C8.27003 2.4799 8.27004 2.72896 8.27004 3.06106C8.27004 3.55919 8.27004 4.05734 8.27004 4.38943C8.27004 4.80454 8.18701 5.0536 8.18701 5.30267C8.18701 5.55174 8.104 5.71779 8.02098 5.80082C7.93796 5.96686 7.93795 6.04989 7.85492 6.04989C7.85492 6.04989 7.85492 6.1329 7.7719 6.1329C7.68887 6.1329 7.60585 6.21593 7.43981 6.21593C7.35679 6.21593 7.19075 6.13291 7.10772 6.04989C6.94168 5.96686 6.77563 5.80082 6.69261 5.63477C6.52656 5.46873 6.36051 5.21965 6.19447 4.88756C6.02842 4.55547 5.77934 4.22338 5.61329 3.72524L5.44726 3.39316C5.36424 3.22711 5.1982 2.89501 5.03215 2.4799C4.8661 2.06478 4.70005 1.7327 4.53401 1.31758C4.45098 1.15154 4.36797 1.06851 4.28495 0.985483H4.20192C4.20192 0.985483 4.11889 0.902467 4.03586 0.902467C3.95284 0.902467 3.86983 0.819439 3.78681 0.819439H0.797975C0.465883 0.819439 0.29984 0.90246 0.216817 0.985483L0.133789 1.06851C0.133789 1.06851 0.133789 1.15153 0.133789 1.23455C0.133789 1.31758 0.133794 1.40059 0.216817 1.56664C0.631932 2.56292 1.13007 3.5592 1.6282 4.55547C2.12634 5.46872 2.62448 6.29895 2.95658 6.88012C3.37169 7.46128 3.70378 8.04244 4.11889 8.54057C4.53401 9.03871 4.78307 9.3708 4.86609 9.53685C5.03214 9.70289 5.11516 9.78591 5.19818 9.86893L5.44726 10.118C5.61331 10.2841 5.86237 10.5331 6.19447 10.7822C6.52656 11.0313 6.94167 11.2803 7.35678 11.5294C7.7719 11.7785 8.27004 11.9445 8.76818 12.1106C9.34934 12.2766 9.84747 12.3596 10.3456 12.2766H11.591C11.84 12.2766 12.0061 12.1936 12.1721 12.0275L12.2551 11.9445C12.2551 11.8615 12.3382 11.8615 12.3382 11.7785C12.3382 11.6954 12.3382 11.6124 12.3382 11.4464C12.3382 11.1143 12.3382 10.8652 12.4212 10.6161C12.5042 10.3671 12.5042 10.201 12.5872 10.035C12.6703 9.86894 12.7533 9.78591 12.8363 9.70289C12.9193 9.61987 13.0024 9.53685 13.0024 9.53685H13.0854C13.2514 9.45382 13.5005 9.53684 13.6665 9.70289C13.9156 9.86894 14.1647 10.118 14.3307 10.3671C14.4967 10.6161 14.7458 10.8652 15.0779 11.1973C15.41 11.5294 15.6591 11.7785 15.8251 11.8615L16.0742 12.0275C16.2402 12.1106 16.4063 12.1936 16.6554 12.2766C16.9044 12.3596 17.0705 12.3596 17.2365 12.3596L20.0593 12.2766C20.3084 12.2766 20.5574 12.1936 20.7235 12.1106C20.8895 12.0275 20.9725 11.9445 20.9725 11.7785C20.9725 11.6954 20.9725 11.5294 20.9725 11.4464C20.8065 11.2803 20.8065 11.1973 20.8065 11.1143Z" fill="#82BA01"/>
</svg>
